<?xml version="1.0" standalone="no"?>
<!DOCTYPE svg PUBLIC "-//W3C//DTD SVG 20010904//EN"
 "http://www.w3.org/TR/2001/REC-SVG-20010904/DTD/svg10.dtd">
<svg version="1.0" xmlns="http://www.w3.org/2000/svg"
 width="1024.000000pt" height="1024.000000pt" viewBox="0 0 1024.000000 1024.000000"
 preserveAspectRatio="xMidYMid meet">

<g transform="translate(0.000000,1024.000000) scale(0.100000,-0.100000)"
fill="#000000" stroke="none">
<path d="M6848 8047 c-99 -42 -296 -171 -640 -419 l-177 -127 -54 23 c-150 67
-404 134 -610 161 -136 17 -437 20 -572 5 -592 -68 -1146 -368 -1510 -820
-130 -162 -195 -262 -280 -435 -153 -311 -231 -619 -242 -965 l-6 -175 -146
-90 c-509 -315 -878 -654 -1021 -940 -112 -223 -90 -419 64 -563 126 -117 317
-187 617 -226 318 -41 696 -28 1262 44 l150 19 36 -28 c75 -59 215 -144 338
-206 333 -166 644 -238 1028 -239 206 0 334 13 510 54 784 182 1411 773 1675
1580 l48 145 76 50 c42 28 149 97 238 155 569 367 889 657 1009 914 79 171 79
355 -2 472 -83 121 -282 211 -556 250 -129 19 -603 23 -739 7 l-72 -9 -5 286
c-5 300 -19 441 -63 660 -76 376 -176 493 -356 417z m-1455 -726 c830 -146
1456 -779 1597 -1617 11 -65 23 -183 28 -260 l7 -142 175 103 175 103 -3 39
c-7 90 -44 306 -72 413 -24 96 -84 280 -114 351 -6 14 8 18 93 27 300 35 608
39 781 12 167 -26 259 -76 281 -150 11 -36 10 -45 -20 -104 -40 -81 -192 -243
-341 -363 -338 -273 -1089 -705 -1723 -992 -749 -340 -1665 -633 -2497 -801
-704 -142 -1329 -178 -1654 -95 -106 26 -141 42 -191 86 -49 44 -61 93 -38
161 63 185 326 439 751 726 142 96 168 110 173 95 4 -10 21 -71 38 -135 35
-136 82 -258 156 -413 48 -98 173 -317 194 -338 8 -8 380 38 413 51 15 6 8 19
-47 87 -272 333 -417 712 -440 1150 -24 435 125 912 397 1272 314 416 795 686
1338 753 121 14 408 5 543 -19z m1393 -2848 c-196 -384 -532 -706 -913 -876
-273 -122 -482 -167 -782 -167 -294 0 -555 56 -775 167 -55 28 -66 37 -54 44
9 5 113 34 230 63 544 139 1078 317 1563 521 231 98 581 257 700 318 39 20 74
36 78 37 4 0 -17 -48 -47 -107z"/>
<path d="M2445 7688 c-2 -7 -14 -50 -25 -96 -53 -213 -131 -296 -348 -367 -58
-19 -97 -38 -97 -46 0 -8 34 -23 85 -39 213 -66 306 -157 355 -350 9 -36 21
-82 26 -102 17 -64 35 -46 59 57 53 231 162 345 384 401 95 24 90 43 -16 74
-199 57 -296 144 -347 310 -11 36 -25 89 -31 118 -8 34 -17 52 -26 52 -8 0
-17 -6 -19 -12z"/>
<path d="M7796 4339 c-3 -8 -14 -50 -26 -94 -43 -162 -107 -225 -285 -280 -40
-12 -70 -27 -70 -35 0 -7 24 -19 55 -27 121 -31 209 -88 255 -167 13 -22 35
-79 48 -126 26 -89 42 -109 52 -63 47 213 114 293 295 349 49 16 89 33 87 38
-2 5 -34 19 -73 31 -180 56 -245 122 -294 296 -21 76 -36 103 -44 78z"/>
</g>
</svg>
